<svg xmlns="http://www.w3.org/2000/svg" viewBox="0 0 400 400" width="400" height="400"><rect x="95" y="105" width="210" height="230" rx="12" fill="#FFFFFF" stroke="#B5AEA2" stroke-width="3"/><rect x="95" y="105" width="210" height="52" rx="12" fill="#4A90C2"/><rect x="95" y="140" width="210" height="17" fill="#4A90C2"/><text x="200" y="143" text-anchor="middle" font-family="DM Sans,Arial,sans-serif" font-size="26" font-weight="800" fill="#FFFFFF">STERILE</text><rect x="130" y="185" width="140" height="100" rx="6" fill="#EAE5DD" stroke="#CFCAC2" stroke-width="2"/><line x1="130" y1="185" x2="130" y2="285" stroke="#CFCAC2" stroke-width="1.5"/><line x1="144" y1="185" x2="144" y2="285" stroke="#CFCAC2" stroke-width="1.5"/><line x1="158" y1="185" x2="158" y2="285" stroke="#CFCAC2" stroke-width="1.5"/><line x1="172" y1="185" x2="172" y2="285" stroke="#CFCAC2" stroke-width="1.5"/><line x1="186" y1="185" x2="186" y2="285" stroke="#CFCAC2" stroke-width="1.5"/><line x1="200" y1="185" x2="200" y2="285" stroke="#CFCAC2" stroke-width="1.5"/><line x1="214" y1="185" x2="214" y2="285" stroke="#CFCAC2" stroke-width="1.5"/><line x1="228" y1="185" x2="228" y2="285" stroke="#CFCAC2" stroke-width="1.5"/><line x1="242" y1="185" x2="242" y2="285" stroke="#CFCAC2" stroke-width="1.5"/><line x1="256" y1="185" x2="256" y2="285" stroke="#CFCAC2" stroke-width="1.5"/><line x1="270" y1="185" x2="270" y2="285" stroke="#CFCAC2" stroke-width="1.5"/><line x1="130" y1="185" x2="270" y2="185" stroke="#CFCAC2" stroke-width="1.5"/><line x1="130" y1="199" x2="270" y2="199" stroke="#CFCAC2" stroke-width="1.5"/><line x1="130" y1="213" x2="270" y2="213" stroke="#CFCAC2" stroke-width="1.5"/><line x1="130" y1="227" x2="270" y2="227" stroke="#CFCAC2" stroke-width="1.5"/><line x1="130" y1="241" x2="270" y2="241" stroke="#CFCAC2" stroke-width="1.5"/><line x1="130" y1="255" x2="270" y2="255" stroke="#CFCAC2" stroke-width="1.5"/><line x1="130" y1="269" x2="270" y2="269" stroke="#CFCAC2" stroke-width="1.5"/><line x1="130" y1="283" x2="270" y2="283" stroke="#CFCAC2" stroke-width="1.5"/><text x="200" y="375" text-anchor="middle" font-family="DM Sans,Arial,sans-serif" font-size="24" font-weight="700" fill="#5E5850">MEDIUM · PACK OF 100</text></svg>